<?xml version="1.0" encoding="iso-8859-1"?>
<!-- Generator: Adobe Illustrator 19.0.0, SVG Export Plug-In . SVG Version: 6.00 Build 0)  -->
<svg version="1.1" id="Layer_1" xmlns="http://www.w3.org/2000/svg" xmlns:xlink="http://www.w3.org/1999/xlink" x="0px" y="0px"
	 viewBox="0 0 512 512" style="enable-background:new 0 0 512 512;" xml:space="preserve">
<g>
	<g>
		<path d="M488.126,215.397h-0.51c-3.993-44.8-41.719-80.043-87.539-80.043H111.922c-45.82,0-83.545,35.244-87.539,80.043h-0.51
			C10.709,215.398,0,226.108,0,239.272c0,10.576,6.915,19.563,16.459,22.69v24.496h8.588l16.265,90.189h429.368l16.331-90.189h8.705
			v-24.557c9.452-3.18,16.282-12.119,16.282-22.629C512,226.108,501.291,215.397,488.126,215.397z M111.922,151.085h55.552v16.868
			h-15.731v15.731h31.461v-32.599h72.361v16.868h-14.682v15.731h30.412v-32.599h72.361v16.868h-15.731v15.731h31.461v-32.599h40.692
			c37.141,0,67.809,28.201,71.742,64.313H40.18C44.113,179.286,74.78,151.085,111.922,151.085z M479.988,270.727h-96.481v15.731
			h87.521l-13.484,74.458H54.461l-13.429-74.458h87.639v-15.731H32.191v-7.581h447.797V270.727z M488.126,247.415h-88.889v-9.198
			h-15.731v9.198h-96.481v-9.198h-15.731v9.198h-95.432v-9.198h-15.731v9.198h-97.53v-9.198H46.872v9.198H23.874
			c-4.49,0-8.143-3.653-8.143-8.143c0-4.491,3.653-8.144,8.143-8.144h79.629v7.088h15.731v-7.088h95.432v7.088h15.731v-7.088h97.53
			v7.088h15.731v-7.088h95.432v7.088h15.731v-7.088h33.308c4.49,0,8.143,3.654,8.143,8.144
			C496.27,243.763,492.616,247.415,488.126,247.415z"/>
	</g>
</g>
<g>
</g>
<g>
</g>
<g>
</g>
<g>
</g>
<g>
</g>
<g>
</g>
<g>
</g>
<g>
</g>
<g>
</g>
<g>
</g>
<g>
</g>
<g>
</g>
<g>
</g>
<g>
</g>
<g>
</g>
</svg>
