<?xml version="1.0" encoding="iso-8859-1"?>
<!-- Generator: Adobe Illustrator 19.0.0, SVG Export Plug-In . SVG Version: 6.00 Build 0)  -->
<svg version="1.1" id="Layer_1" xmlns="http://www.w3.org/2000/svg" xmlns:xlink="http://www.w3.org/1999/xlink" x="0px" y="0px"
	 viewBox="0 0 512 512" style="enable-background:new 0 0 512 512;" xml:space="preserve">
<g>
	<g>
		<path d="M256.011,25.666c-4.428,0-8.016,3.588-8.016,8.016v8.551c0,4.428,3.588,8.016,8.016,8.016s8.016-3.588,8.016-8.016v-8.551
			C264.028,29.254,260.44,25.666,256.011,25.666z"/>
	</g>
</g>
<g>
	<g>
		<path d="M256.011,68.42c-4.428,0-8.016,3.588-8.016,8.016v8.551c0,4.428,3.588,8.016,8.016,8.016s8.016-3.588,8.016-8.016v-8.551
			C264.028,72.008,260.44,68.42,256.011,68.42z"/>
	</g>
</g>
<g>
	<g>
		<path d="M281.663,51.318h-8.551c-4.428,0-8.016,3.588-8.016,8.016c0,4.428,3.588,8.016,8.016,8.016h8.551
			c4.428,0,8.016-3.588,8.016-8.016C289.68,54.906,286.092,51.318,281.663,51.318z"/>
	</g>
</g>
<g>
	<g>
		<path d="M238.91,51.318h-8.551c-4.428,0-8.016,3.588-8.016,8.016c0,4.428,3.588,8.016,8.016,8.016h8.551
			c4.428,0,8.016-3.588,8.016-8.016C246.926,54.906,243.338,51.318,238.91,51.318z"/>
	</g>
</g>
<g>
	<g>
		<path d="M350.069,42.767c-4.428,0-8.016,3.588-8.016,8.016v8.551c0,4.428,3.588,8.016,8.016,8.016
			c4.428,0,8.016-3.588,8.016-8.016v-8.551C358.085,46.356,354.497,42.767,350.069,42.767z"/>
	</g>
</g>
<g>
	<g>
		<path d="M350.069,85.521c-4.428,0-8.016,3.588-8.016,8.016v8.551c0,4.428,3.588,8.016,8.016,8.016
			c4.428,0,8.016-3.588,8.016-8.016v-8.551C358.085,89.109,354.497,85.521,350.069,85.521z"/>
	</g>
</g>
<g>
	<g>
		<path d="M375.721,68.42h-8.551c-4.428,0-8.016,3.588-8.016,8.016c0,4.428,3.588,8.016,8.016,8.016h8.551
			c4.428,0,8.016-3.588,8.016-8.016C383.737,72.008,380.149,68.42,375.721,68.42z"/>
	</g>
</g>
<g>
	<g>
		<path d="M332.968,68.42h-8.551c-4.428,0-8.016,3.588-8.016,8.016c0,4.428,3.588,8.016,8.016,8.016h8.551
			c4.428,0,8.016-3.588,8.016-8.016C340.984,72.008,337.396,68.42,332.968,68.42z"/>
	</g>
</g>
<g>
	<g>
		<path d="M161.954,42.767c-4.428,0-8.016,3.588-8.016,8.016v8.551c0,4.428,3.588,8.016,8.016,8.016s8.016-3.588,8.016-8.016v-8.551
			C169.97,46.356,166.382,42.767,161.954,42.767z"/>
	</g>
</g>
<g>
	<g>
		<path d="M161.954,85.521c-4.428,0-8.016,3.588-8.016,8.016v8.551c0,4.428,3.588,8.016,8.016,8.016s8.016-3.588,8.016-8.016v-8.551
			C169.97,89.109,166.382,85.521,161.954,85.521z"/>
	</g>
</g>
<g>
	<g>
		<path d="M187.606,68.42h-8.551c-4.428,0-8.016,3.588-8.016,8.016c0,4.428,3.588,8.016,8.016,8.016h8.551
			c4.428,0,8.016-3.588,8.016-8.016C195.622,72.008,192.034,68.42,187.606,68.42z"/>
	</g>
</g>
<g>
	<g>
		<path d="M144.852,68.42h-8.551c-4.428,0-8.016,3.588-8.016,8.016c0,4.428,3.588,8.016,8.016,8.016h8.551
			c4.428,0,8.016-3.588,8.016-8.016C152.869,72.008,149.28,68.42,144.852,68.42z"/>
	</g>
</g>
<g>
	<g>
		<path d="M256.011,230.883c-4.428,0-8.016,3.588-8.016,8.016v34.203c0,4.428,3.588,8.016,8.016,8.016s8.016-3.589,8.016-8.016
			v-34.203C264.028,234.471,260.44,230.883,256.011,230.883z"/>
	</g>
</g>
<g>
	<g>
		<path d="M307.316,230.883c-4.428,0-8.016,3.588-8.016,8.016v34.203c0,4.428,3.588,8.016,8.016,8.016s8.016-3.589,8.016-8.016
			v-34.203C315.332,234.471,311.744,230.883,307.316,230.883z"/>
	</g>
</g>
<g>
	<g>
		<path d="M204.707,230.883c-4.428,0-8.016,3.588-8.016,8.016v34.203c0,4.428,3.588,8.016,8.016,8.016
			c4.428,0,8.016-3.589,8.016-8.016v-34.203C212.723,234.471,209.135,230.883,204.707,230.883z"/>
	</g>
</g>
<g>
	<g>
		<path d="M358.62,230.883c-4.428,0-8.016,3.588-8.016,8.016v25.652c0,4.428,3.588,8.016,8.016,8.016
			c4.428,0,8.016-3.589,8.016-8.016v-25.652C366.636,234.471,363.048,230.883,358.62,230.883z"/>
	</g>
</g>
<g>
	<g>
		<path d="M153.403,230.883c-4.428,0-8.016,3.588-8.016,8.016v25.652c0,4.428,3.588,8.016,8.016,8.016
			c4.428,0,8.016-3.589,8.016-8.016v-25.652C161.419,234.471,157.831,230.883,153.403,230.883z"/>
	</g>
</g>
<g>
	<g>
		<path d="M488.256,274.317c-5.886-9.5-12.279-17.548-19.019-24.042c0.001-0.051,0.008-0.102,0.008-0.154v-71.315
			c2.483-1.193,4.818-2.791,6.875-4.845c9.793-9.794,9.793-25.729-0.001-35.522l-7.204-7.204
			c-2.902-23.446-25.383-53.422-59.206-78.749c-3.543-2.652-8.568-1.932-11.222,1.613c-2.653,3.543-1.931,8.568,1.613,11.222
			c25.657,19.212,41.575,39.111,48.704,54.474c-0.597-0.043-1.198-0.07-1.803-0.07c-6.709,0-13.017,2.612-17.762,7.357
			c-2.319,2.319-4.07,4.989-5.291,7.835l-3.711-3.711c-9.795-9.793-25.727-9.793-35.522,0c-2.216,2.216-3.903,4.756-5.117,7.459
			l-7.459-7.459c-9.795-9.793-25.727-9.793-35.522,0c-2.216,2.216-3.903,4.756-5.117,7.459l-7.459-7.459
			c-9.795-9.793-25.727-9.793-35.522,0c-2.216,2.216-3.903,4.756-5.117,7.459l-7.459-7.459c-9.795-9.793-25.727-9.793-35.522,0
			c-2.216,2.216-3.903,4.756-5.117,7.459l-7.459-7.459c-9.795-9.793-25.727-9.793-35.522,0c-2.216,2.216-3.903,4.756-5.117,7.459
			l-7.459-7.459c-9.795-9.793-25.727-9.793-35.522,0c-2.216,2.216-3.903,4.756-5.117,7.459l-7.459-7.459
			c-9.795-9.793-25.727-9.793-35.522,0c-2.216,2.216-3.903,4.756-5.117,7.459l-7.459-7.459c-6.035-6.034-14.397-8.336-22.221-6.935
			c6.138-16.552,23.661-39.622,54.253-61.633c24.181-17.399,74.58-46.589,140.428-46.589c49.839,0,90.749,16.998,116.292,31.257
			c3.866,2.157,8.75,0.774,10.907-3.093c2.158-3.865,0.774-8.748-3.093-10.906c-27.205-15.189-70.82-33.292-124.107-33.292
			c-70.344,0-124.044,31.081-149.793,49.607c-38.539,27.729-63.44,61.749-63.44,86.67c0,0.714,0.103,1.402,0.278,2.061
			c-1.546,3.321-2.35,6.904-2.366,10.499c-5.904,0.363-11.704,2.769-16.207,7.27c-9.682,9.684-9.683,25.84,0,35.523l11.359,11.357
			c9.682,9.684,25.84,9.683,35.523,0.001c2.285-2.285,4.013-4.912,5.233-7.71l7.71,7.708c9.682,9.684,25.84,9.684,35.522,0.001
			c2.216-2.216,3.903-4.756,5.117-7.459l7.459,7.458c9.682,9.684,25.84,9.684,35.522,0.001c2.216-2.216,3.903-4.756,5.117-7.459
			l7.459,7.458c9.682,9.684,25.84,9.684,35.522,0.001c2.216-2.216,3.903-4.756,5.117-7.459l7.459,7.458
			c9.682,9.684,25.84,9.684,35.522,0.001c2.216-2.216,3.903-4.756,5.117-7.459l7.459,7.458c9.682,9.684,25.84,9.684,35.522,0.001
			c2.216-2.216,3.903-4.756,5.117-7.459l7.459,7.458c9.682,9.684,25.84,9.684,35.522,0.001c2.216-2.216,3.903-4.756,5.117-7.459
			l7.459,7.458c9.682,9.684,25.84,9.684,35.522,0.001c2.216-2.216,3.903-4.756,5.117-7.459l7.459,7.458
			c4.743,4.745,11.052,7.358,17.761,7.358c5.254,0,10.258-1.609,14.46-4.581v32.373c-8.495-4.781-17.31-7.269-26.187-7.269
			c-22.13,0-43.877,15.427-61.231,43.435c-8.678,14.006-15.385,29.899-19.428,45.329c-13.473,1.677-27.695,2.98-42.313,3.866
			c-0.403,0.025-0.793,0.088-1.177,0.169c-12.069-10.359-25.123-15.842-38.314-15.842c-13.512,0-26.878,5.761-39.192,16.615
			c-0.361-0.065-0.729-0.114-1.106-0.129c-12.415-0.487-24.648-1.279-36.458-2.332c-5.969-17.182-17.252-31.929-32.587-42.309
			c-19.114-12.938-48.247-21.674-76.03-22.796c-7.189-0.292-13.996-0.074-20.377,0.637v-18.981c0-4.428-3.588-8.016-8.016-8.016
			c-4.428,0-8.016,3.588-8.016,8.016v22.052c-14.998,4.232-26.603,11.896-33.883,22.65c-12.405,18.326-11.821,44.981,1.646,75.054
			c11.365,25.377,30.298,49.179,49.411,62.118c14.228,9.631,30.648,14.631,47.455,14.631c5.398-0.001,10.836-0.516,16.253-1.559
			c22.287-4.295,41.568-17.011,54.292-35.806c11.876-17.545,16.705-38.428,13.804-59.256c6.404,0.522,12.92,0.961,19.506,1.324
			c-2.729,3.566-5.378,7.405-7.931,11.523c-3.358,5.421-6.409,11.133-9.141,16.983c-0.018,0.041-0.038,0.079-0.057,0.12
			c-9.147,19.627-14.545,40.885-14.545,58.638c0,46.855,38.118,84.973,84.973,84.973c6.892,0,13.588-0.845,20.009-2.402
			c0.089-0.021,0.179-0.037,0.267-0.062c18.789-4.618,35.128-15.501,46.692-30.3c0.311-0.33,0.591-0.69,0.845-1.075
			c10.762-14.237,17.158-31.951,17.158-51.133c0-0.118-0.009-0.241-0.009-0.358c0.005-0.201-0.004-0.399-0.014-0.596
			c-0.243-22.926-9.273-51.47-23.719-74.787c-2.807-4.531-5.73-8.726-8.751-12.586c8.872-0.683,17.561-1.518,25.996-2.494
			c-0.644,4.786-0.985,9.436-0.985,13.864c0,46.855,38.118,84.973,84.973,84.973c46.855,0,84.973-38.118,84.973-84.973
			C511.998,326.976,502.901,297.955,488.256,274.317z M102.099,281.118c14.44,0,26.187,11.747,26.187,26.187
			s-11.747,26.187-26.187,26.187s-26.187-11.747-26.187-26.187S87.659,281.118,102.099,281.118z M51.028,275.109
			c6.659-1.51,14.103-2.312,22.213-2.312c1.458,0,2.95,0.041,4.451,0.091c-10.766,7.658-17.811,20.227-17.811,34.415
			c0,23.279,18.94,42.219,42.219,42.219c23.279,0,42.219-18.94,42.219-42.219c0-6.424-1.448-12.514-4.026-17.97
			c2.09,1.166,4.086,2.372,5.94,3.627c6.391,4.326,11.806,9.553,16.23,15.386c-0.56,32.819-27.414,59.347-60.363,59.347
			c-33.299,0-60.389-27.091-60.389-60.389C41.709,295.818,44.927,284.752,51.028,275.109z M164.676,388.696
			c-10.323,15.25-25.966,25.566-44.048,29.05c-18.085,3.481-36.439-0.283-51.688-10.606c-16.529-11.189-33.707-32.932-43.766-55.394
			c-10.953-24.459-12.047-46.151-3.002-59.514c1.819-2.687,4.129-5.102,6.835-7.263c-2.193,7.176-3.329,14.682-3.329,22.336
			c0,42.139,34.283,76.422,76.422,76.422c33.293,0,61.667-21.409,72.118-51.177C179.08,351.111,176.253,371.593,164.676,388.696z
			 M195.622,427.015c0-7.206,1.111-15.288,3.15-23.669c9.695,36.475,31.11,68.991,61.006,92.425
			C223.99,493.302,195.622,463.418,195.622,427.015z M283.982,493.151c-42.227-26.162-69.8-70.639-74.316-119.961
			c6.076-12.598,13.816-24.328,22.601-33.185c-0.897,6.135-1.372,12.346-1.372,18.604c0,28.323,9.08,55.152,26.256,77.585
			c14.06,18.359,33.088,32.662,54.443,41.161C303.842,484.602,294.425,490.079,283.982,493.151z M322.495,464.312
			c-44.764-15.302-75.568-57.967-75.568-105.704c0-10.95,1.593-21.738,4.709-32.126c4.213-1.684,8.538-2.611,12.927-2.611
			c5.336,0.001,10.575,1.366,15.636,3.806c-4.299,9.707-6.552,20.258-6.552,30.931c0,35.958,25.137,66.782,59.568,74.529
			C332.206,444.551,328.403,455.169,322.495,464.312z M332.797,416.458c-25.153-7.488-43.117-30.828-43.117-57.849
			c0-7.413,1.377-14.75,4.015-21.624C314.016,355.335,329.405,389.454,332.797,416.458z M60.027,191.665
			c-3.5,3.503-9.348,3.503-12.848,0l-11.36-11.359c-3.502-3.502-3.502-9.348,0.001-12.849c3.495-3.497,9.352-3.497,12.847,0
			l11.36,11.36C63.569,182.36,63.569,188.124,60.027,191.665z M108.491,191.666c-3.502,3.502-9.347,3.5-12.849-0.001L59.367,155.39
			c-3.542-3.542-3.542-9.307,0-12.849c3.495-3.497,9.352-3.497,12.847,0l37.455,37.727
			C111.976,183.79,111.584,188.574,108.491,191.666z M156.589,191.666c-3.502,3.502-9.347,3.5-12.848-0.001l-37.456-37.729
			c-2.304-3.523-1.912-8.306,1.18-11.396c3.495-3.497,9.352-3.497,12.847,0l37.455,37.727
			C160.074,183.79,159.681,188.574,156.589,191.666z M204.687,191.666c-3.502,3.502-9.347,3.5-12.849-0.001l-37.456-37.729
			c-2.304-3.523-1.912-8.306,1.18-11.396c3.495-3.497,9.352-3.497,12.847,0l37.455,37.727
			C208.171,183.79,207.779,188.574,204.687,191.666z M252.785,191.666c-3.502,3.502-9.347,3.5-12.849-0.001l-37.456-37.729
			c-2.304-3.523-1.912-8.306,1.18-11.396c3.495-3.497,9.352-3.497,12.847,0l37.455,37.727
			C256.269,183.79,255.877,188.574,252.785,191.666z M300.882,191.666c-3.502,3.502-9.347,3.5-12.849-0.001l-37.456-37.729
			c-2.304-3.523-1.912-8.306,1.18-11.396c3.495-3.497,9.352-3.497,12.847,0l37.455,37.727
			C304.367,183.79,303.974,188.574,300.882,191.666z M348.98,191.666c-3.501,3.502-9.347,3.5-12.848-0.001l-37.456-37.729
			c-2.304-3.523-1.912-8.306,1.18-11.396c3.495-3.497,9.352-3.497,12.847,0l37.455,37.727
			C352.464,183.79,352.072,188.574,348.98,191.666z M397.078,191.666c-3.502,3.502-9.347,3.5-12.849-0.001l-37.456-37.729
			c-2.304-3.523-1.912-8.306,1.18-11.396c3.495-3.497,9.352-3.497,12.847,0l37.455,37.727
			C400.562,183.79,400.17,188.574,397.078,191.666z M445.175,191.666c-3.502,3.502-9.347,3.5-12.849-0.001l-37.456-37.729
			c-2.304-3.523-1.912-8.306,1.18-11.396c3.495-3.497,9.352-3.497,12.847,0l36.277,36.277
			C448.717,182.36,448.717,188.124,445.175,191.666z M451.934,162.625l-11.36-11.36c-3.542-3.542-3.542-9.306,0-12.847
			c3.502-3.504,9.348-3.502,12.849,0l11.359,11.359c3.542,3.541,3.542,9.306,0.001,12.849
			C461.238,166.167,455.474,166.167,451.934,162.625z M427.025,246.915c12.262,0,24.019,7.174,34.246,18.17h-68.49
			C403.007,254.09,414.765,246.915,427.025,246.915z M427.025,418.998c-17.944,0-34.302-6.897-46.581-18.17h93.162
			C461.329,412.102,444.969,418.998,427.025,418.998z M486.537,384.796H367.515c-5.982-10.208-9.428-22.075-9.428-34.737
			c-0.001-20.306,8.801-47.55,22.441-68.94h92.995c13.641,21.391,22.442,48.634,22.442,68.94
			C495.965,362.721,492.518,374.587,486.537,384.796z"/>
	</g>
</g>
<g>
	<g>
		<path d="M428.094,324.941h-1.069c-4.428,0-8.016,3.588-8.016,8.016c0,4.428,3.589,8.016,8.016,8.016h1.069
			c4.428,0,8.016-3.588,8.016-8.016C436.111,328.529,432.522,324.941,428.094,324.941z"/>
	</g>
</g>
<g>
	<g>
		<path d="M427.025,290.738c-4.428,0-8.016,3.588-8.016,8.016v8.551c0,4.427,3.589,8.016,8.016,8.016
			c4.428,0,8.016-3.588,8.016-8.016v-8.551C435.042,294.326,431.454,290.738,427.025,290.738z"/>
	</g>
</g>
<g>
	<g>
		<path d="M427.025,350.593c-4.428,0-8.016,3.588-8.016,8.016v8.551c0,4.427,3.589,8.016,8.016,8.016
			c4.428,0,8.016-3.588,8.016-8.016v-8.551C435.042,354.181,431.454,350.593,427.025,350.593z"/>
	</g>
</g>
<g>
	<g>
		<path d="M461.228,324.941h-8.551c-4.428,0-8.016,3.588-8.016,8.016c0,4.428,3.589,8.016,8.016,8.016h8.551
			c4.428,0,8.016-3.588,8.016-8.016C469.245,328.529,465.656,324.941,461.228,324.941z"/>
	</g>
</g>
<g>
	<g>
		<path d="M401.373,324.941h-8.551c-4.428,0-8.016,3.588-8.016,8.016c0,4.428,3.589,8.016,8.016,8.016h8.551
			c4.428,0,8.016-3.588,8.016-8.016C409.39,328.529,405.801,324.941,401.373,324.941z"/>
	</g>
</g>
<g>
	<g>
		<path d="M103.168,299.289h-1.069c-4.427,0-8.016,3.588-8.016,8.016s3.588,8.016,8.016,8.016h1.069
			c4.428,0,8.016-3.588,8.016-8.016S107.596,299.289,103.168,299.289z"/>
	</g>
</g>
<g>
</g>
<g>
</g>
<g>
</g>
<g>
</g>
<g>
</g>
<g>
</g>
<g>
</g>
<g>
</g>
<g>
</g>
<g>
</g>
<g>
</g>
<g>
</g>
<g>
</g>
<g>
</g>
<g>
</g>
</svg>
