<?xml version="1.0" encoding="iso-8859-1"?>
<!-- Generator: Adobe Illustrator 19.0.0, SVG Export Plug-In . SVG Version: 6.00 Build 0)  -->
<svg version="1.1" id="Capa_1" xmlns="http://www.w3.org/2000/svg" xmlns:xlink="http://www.w3.org/1999/xlink" x="0px" y="0px"
	 viewBox="0 0 57.636 57.636" style="enable-background:new 0 0 57.636 57.636;" xml:space="preserve">
<g>
	<path d="M57.343,55.929l-13.34-13.34v-7.953c0-0.552-0.448-1-1-1s-1,0.448-1,1v5.953L29.769,28.355l1.179-1.179
		c1.184-1.184,1.864-2.738,1.917-4.377c0.053-1.663-0.544-3.206-1.682-4.344l-3.535-3.536c-2.339-2.339-6.251-2.233-8.721,0.236
		l-1.306,1.306L16.41,15.25l1.306-1.306c1.184-1.184,1.864-2.738,1.917-4.377c0.053-1.663-0.544-3.206-1.682-4.344l-3.535-3.536
		c-2.339-2.339-6.252-2.234-8.721,0.236L4.51,3.108l-2.8-2.8c-0.391-0.391-1.023-0.391-1.414,0s-0.391,1.023,0,1.414l2.8,2.8
		L1.924,5.695c-2.469,2.469-2.575,6.381-0.236,8.721l3.536,3.535c1.091,1.091,2.554,1.685,4.138,1.685
		c0.068,0,0.137-0.001,0.206-0.003c1.639-0.053,3.193-0.734,4.377-1.917l1.052-1.052l1.212,1.212l-1.051,1.051
		c-2.469,2.469-2.575,6.381-0.236,8.721l3.536,3.535c1.091,1.091,2.554,1.685,4.138,1.685c0.068,0,0.137-0.001,0.206-0.003
		c1.639-0.053,3.193-0.734,4.377-1.917l1.179-1.179l3.867,3.867h-1.219c-0.552,0-1,0.448-1,1s0.448,1,1,1h3
		c0.065,0,0.121-0.025,0.182-0.037l15.037,15.037h-4.219c-0.552,0-1,0.448-1,1s0.448,1,1,1h6c0.065,0,0.121-0.025,0.182-0.037
		l4.744,4.744c0.195,0.195,0.451,0.293,0.707,0.293s0.512-0.098,0.707-0.293C57.734,56.952,57.734,56.32,57.343,55.929z
		 M9.637,2.062c-1.562,3.23-4.243,5.826-7.532,7.276c0.18-0.806,0.59-1.587,1.233-2.23l1.191-1.191
		c0.178,0.135,0.383,0.219,0.595,0.219c0.256,0,0.512-0.098,0.707-0.293c0.358-0.358,0.371-0.91,0.074-1.302l1.203-1.203
		C7.83,2.616,8.726,2.199,9.637,2.062z M12.529,16.302c-0.823,0.823-1.898,1.296-3.027,1.333c-1.117,0.028-2.123-0.354-2.865-1.097
		l-3.536-3.535c-0.444-0.444-0.737-0.98-0.913-1.552c0.062-0.012,0.125-0.012,0.186-0.036c4.196-1.679,7.576-5,9.365-9.14
		c0.463,0.184,0.893,0.459,1.262,0.828l3.535,3.536c0.743,0.743,1.133,1.761,1.097,2.865c-0.037,1.129-0.51,2.205-1.333,3.027
		L12.529,16.302z M22.87,15.294c-1.562,3.23-4.243,5.826-7.532,7.276c0.18-0.806,0.59-1.587,1.233-2.23l1.079-1.079
		c0.167,0.111,0.351,0.184,0.543,0.184c0.256,0,0.512-0.098,0.707-0.293c0.342-0.342,0.366-0.862,0.109-1.25l1.333-1.333
		C21.063,15.848,21.959,15.432,22.87,15.294z M25.762,29.534c-0.823,0.823-1.898,1.295-3.027,1.332
		c-1.113,0.032-2.123-0.354-2.865-1.097l-3.536-3.535c-0.444-0.444-0.737-0.98-0.913-1.552c0.062-0.012,0.125-0.012,0.186-0.036
		c4.196-1.679,7.576-5,9.365-9.14c0.463,0.184,0.893,0.459,1.262,0.828l3.535,3.536c0.743,0.743,1.133,1.761,1.097,2.865
		c-0.037,1.129-0.51,2.205-1.333,3.027l-1.868,1.868c-0.006,0.006-0.015,0.008-0.021,0.014s-0.008,0.015-0.014,0.021L25.762,29.534z
		"/>
	<path d="M21.744,34.605c-0.393,0.145-0.653,0.52-0.653,0.938c0,3.124-2.255,6.122-3.823,7.829
		c-0.505-3.499-1.987-6.457-2.062-6.606c-0.209-0.412-0.669-0.629-1.125-0.521c-0.45,0.107-0.768,0.51-0.768,0.973
		c0,1.765-2.411,2.206-3.473,2.314c-0.944-1.66-0.25-5.427,0.472-7.577c0.108-0.323,0.045-0.678-0.167-0.944
		s-0.546-0.403-0.884-0.37c-5.787,0.603-8.974,3.929-8.974,9.367c0,1.914,0.354,3.591,1.055,5.018
		c-0.005-0.001-0.011-0.003-0.017-0.005c-0.331-0.101-0.688-0.023-0.947,0.204c-0.26,0.227-0.384,0.571-0.33,0.912
		c0.974,6.084,6.229,10.5,12.497,10.5c7.102,0,12.665-5.342,12.665-12.163c0-6.746-2.265-9.468-2.361-9.581
		C22.578,34.575,22.137,34.46,21.744,34.605z M12.547,54.636c-4.671,0-8.673-2.902-10.1-7.109C3.333,47.869,3.989,48.168,4,48.173
		c0.458,0.21,1.005,0.043,1.269-0.388c0.264-0.432,0.164-0.993-0.233-1.306c-1.849-1.46-2.748-3.577-2.748-6.471
		c0-3.973,1.863-6.322,5.684-7.144c-0.566,2.271-1.225,6.358,0.661,8.383c0.193,0.207,0.47,0.298,0.746,0.318
		c1.39-0.02,3.62-0.46,4.914-1.791c0.544,1.525,1.142,3.686,1.142,5.814c0,0.389,0.225,0.742,0.577,0.906
		c0.352,0.164,0.768,0.11,1.065-0.14c0.197-0.165,3.941-3.348,5.42-7.542c0.384,1.318,0.714,3.175,0.714,5.66
		C23.212,50.267,18.627,54.636,12.547,54.636z"/>
</g>
<g>
</g>
<g>
</g>
<g>
</g>
<g>
</g>
<g>
</g>
<g>
</g>
<g>
</g>
<g>
</g>
<g>
</g>
<g>
</g>
<g>
</g>
<g>
</g>
<g>
</g>
<g>
</g>
<g>
</g>
</svg>
